# xmcd
#
# Track frame offsets: 
#        150
#        23230
#        44037
#        69075
#        90240
#        103937
#        127855
#        150280
#        172037
#        196795
#        219027
#        230160
#        256477
#        275555
#
# Disc length: 3957 seconds
#
# Revision: 0
# Processed by: cddbd v1.5.2PL0 Copyright (c) Steve Scherf et al.
# Submitted via: ExactAudioCopy v1.0b3
#
DISCID=b60f730e
DTITLE=クミコ - INORI ～祈り～
DYEAR=1900
DGENRE=Chanson
TTITLE0=INORI ～祈り～
TTITLE1=ブラボー!
TTITLE2=届かなかったラヴレター
TTITLE3=チューリップ
TTITLE4=今日までそして明日から
TTITLE5=わが麗しき恋物語 (2011 リミックス)
TTITLE6=百万本のバラ
TTITLE7=心の指紋 (2011 ヴァージョン)
TTITLE8=わたしのフェアリーテール
TTITLE9=わたしは青空 (2011 ヴァージョン)
TTITLE10=水に流して
TTITLE11=十年
TTITLE12=愛の讃歌
TTITLE13=いつのまに…
EXTD=
EXTT0=
EXTT1=
EXTT2=
EXTT3=
EXTT4=
EXTT5=
EXTT6=
EXTT7=
EXTT8=
EXTT9=
EXTT10=
EXTT11=
EXTT12=
EXTT13=
PLAYORDER=
